<svg width="32" height="32" viewBox="0 0 32 32" fill="none" xmlns="http://www.w3.org/2000/svg">
<rect width="32" height="32" rx="16" fill="white" fill-opacity="0.2"/>
<path d="M15.6667 22.5C11.9 22.5 8.83337 19.4333 8.83337 15.6667C8.83337 11.9 11.9 8.83333 15.6667 8.83333C19.4334 8.83333 22.5 11.9 22.5 15.6667C22.5 19.4333 19.4334 22.5 15.6667 22.5ZM15.6667 9.83333C12.4467 9.83333 9.83337 12.4533 9.83337 15.6667C9.83337 18.88 12.4467 21.5 15.6667 21.5C18.8867 21.5 21.5 18.88 21.5 15.6667C21.5 12.4533 18.8867 9.83333 15.6667 9.83333Z" fill="white"/>
<path d="M22.6666 23.1667C22.54 23.1667 22.4133 23.12 22.3133 23.02L20.98 21.6867C20.7866 21.4933 20.7866 21.1733 20.98 20.98C21.1733 20.7867 21.4933 20.7867 21.6866 20.98L23.02 22.3133C23.2133 22.5067 23.2133 22.8267 23.02 23.02C22.92 23.12 22.7933 23.1667 22.6666 23.1667Z" fill="white"/>
</svg>
